<svg width="201" height="48" viewBox="0 0 201 48" fill="none" xmlns="http://www.w3.org/2000/svg">
<g clip-path="url(#clip0_2183_3320)">
<rect width="201" height="48" fill="white"/>
<path d="M0 11.0821C0.019013 9.96782 0.179266 9.022 0.62064 8.14142C0.938428 7.50544 1.40017 7.10864 2.16341 6.97818C3.97597 6.69209 5.71278 6.04517 7.27111 5.07568C8.25436 4.45193 9.05969 3.66919 9.51057 2.58341C9.74959 2.00451 10.1108 1.72865 10.7614 1.67021C12.8134 1.48947 14.7772 0.879317 16.76 0.364284C18.0664 0.0259108 19.3973 -0.131726 20.7391 0.144136C23.2801 0.667323 24.7807 2.27901 25.4516 4.72236C25.7789 5.91957 26.587 6.44412 27.7984 6.21718C28.0004 6.19019 28.1914 6.10935 28.3515 5.98312C28.5116 5.85688 28.6348 5.68991 28.7083 5.49967C28.9649 4.88135 29.189 4.76585 29.8545 4.88951C30.4193 5.00671 30.9694 5.18581 31.495 5.42357C32.0709 5.66727 32.6471 5.91233 33.2239 6.15875C33.8461 6.43525 34.5237 6.56453 35.2039 6.53653C35.9843 6.50605 36.7657 6.56027 37.5344 6.69824C38.6561 6.89121 39.1111 7.67803 38.7281 8.73663C38.6056 9.10841 38.3999 9.44726 38.1265 9.72729C37.6104 10.2274 37.5031 10.8389 37.6186 11.5034C37.969 13.5078 39.0364 15.1073 40.5085 16.4553C41.5879 17.4369 42.5541 18.5364 43.389 19.7331C43.6959 20.1747 43.6864 20.2168 43.1473 20.2522C42.0812 20.3215 41.0124 20.3609 39.945 20.4098C33.6584 20.6911 27.3719 20.9629 21.0854 21.2605C19.5793 21.3325 18.0732 21.4562 16.5725 21.6165C15.7061 21.7089 15.1113 21.4983 14.7256 20.6653C14.3399 19.8323 13.214 19.3417 12.2118 19.4789C11.2883 19.604 10.3716 19.7738 9.45354 19.9342C8.07031 20.1843 6.64328 19.9333 5.42821 19.2262C2.71207 17.6838 0.801263 15.4986 0.153463 12.365C0.0583977 11.8948 0.0393841 11.4164 0 11.0821Z" fill="#0857A3"/>
<path d="M96.2098 33.1564C92.065 33.1428 87.4842 32.8588 82.9972 31.7119C80.3707 31.0406 77.8827 30.054 75.6256 28.5116C73.4278 27.0513 71.855 24.8217 71.2159 22.2606C70.2713 18.6703 70.2713 14.8965 71.2159 11.3062C71.9778 8.35738 73.7405 6.15048 76.3358 4.56325C78.9311 2.97603 81.7939 2.0207 84.7694 1.42957C89.7223 0.445705 94.735 0.288069 99.7666 0.46473C103.174 0.578316 106.572 0.895968 109.941 1.41598C111.369 1.63884 111.081 1.43772 111.102 2.7056C111.119 3.6718 111.092 4.63799 111.112 5.60283C111.12 6.01051 110.994 6.1002 110.601 6.001C108.364 5.43211 106.078 5.07047 103.774 4.92065C99.6417 4.66245 95.524 4.68284 91.5367 6.001C87.3416 7.3871 85.1225 10.3917 84.6255 14.7212C84.4068 16.6237 84.4449 18.5113 84.8876 20.3771C85.8192 24.3044 88.3643 26.6567 92.1709 27.7506C95.1193 28.5986 98.1465 28.7576 101.191 28.7304C104.366 28.7234 107.527 28.3231 110.603 27.5386C110.984 27.4381 111.117 27.5196 111.111 27.93C111.092 29.115 111.092 30.3009 111.111 31.4877C111.111 31.8614 110.957 31.9782 110.609 32.0312C105.846 32.7768 101.032 33.153 96.2098 33.1564Z" fill="#0857A3"/>
<path d="M122.087 1.59677C124.428 1.59677 126.771 1.61307 129.112 1.58454C129.621 1.58454 129.813 1.7544 129.927 2.23003C131.551 8.88877 133.185 15.5407 134.829 22.1859C134.837 22.253 134.852 22.3191 134.874 22.3829C134.939 22.5188 134.889 22.743 135.059 22.7743C135.26 22.811 135.311 22.5827 135.394 22.4495C136.97 19.8983 138.541 17.3463 140.11 14.7933C142.716 10.5525 145.319 6.30862 147.917 2.06152C147.996 1.90546 148.119 1.77681 148.272 1.69242C148.425 1.60803 148.6 1.57184 148.774 1.58861C150.404 1.61172 152.033 1.59948 153.663 1.609C153.838 1.609 154.07 1.50844 154.18 1.69053C154.29 1.87263 154.099 2.03434 154.005 2.18654C150.727 7.54615 147.448 12.9048 144.169 18.2626C141.923 21.9308 139.678 25.5999 137.434 29.2699C137.277 29.5527 137.069 29.8039 136.82 30.0106C135.417 31.08 133.887 31.894 132.097 31.9226C128.823 31.9796 125.547 31.9334 122.271 31.947C121.888 31.947 121.782 31.7581 121.706 31.4483C120.281 25.6339 118.854 19.8195 117.424 14.0051L114.532 2.22867C114.379 1.609 114.379 1.59949 115.01 1.59813C117.369 1.59813 119.728 1.59813 122.087 1.59813V1.59677Z" fill="#0857A3"/>
<path d="M49.1309 21.1095C49.1038 21.3418 48.9558 21.4927 48.8444 21.653C47.6574 23.4061 46.499 25.1863 45.2659 26.8999C43.9594 28.7208 42.3813 30.3162 40.863 31.9591C40.3615 32.5335 39.8269 33.078 39.2618 33.5899C38.447 34.2911 38.0912 35.1757 37.9812 36.2058C37.935 36.713 37.8358 37.2141 37.6851 37.7006C37.4244 38.4956 36.9042 38.9902 36.0731 39.1438C35.906 39.175 35.7404 39.2104 35.5747 39.2403C34.3524 39.4672 33.4466 40.0842 33.0093 41.2895C32.8993 41.5912 32.7825 41.8902 32.6806 42.1946C32.5402 42.6688 32.2802 43.0989 31.9255 43.4434C29.6481 45.5457 27.0609 47.103 24.0229 47.845C23.3796 48.008 22.71 48.039 22.0544 47.9362C21.3988 47.8335 20.7708 47.5991 20.2081 47.2471C19.6024 46.8869 19.2575 46.4222 19.4544 45.7006C19.6703 44.8852 19.3919 44.2058 18.8908 43.5834C18.8473 43.5304 18.8106 43.4747 18.7658 43.423C17.6576 42.1443 17.2149 40.7188 17.7364 39.0459C17.917 38.4616 17.7622 38.2931 17.147 38.3379C16.764 38.3665 16.5413 38.2129 16.358 37.914C16.0239 37.3704 15.9994 36.7969 16.1475 36.2017C16.3797 35.2708 16.9365 34.5248 17.5259 33.7991C17.7717 33.4961 18.0338 33.2039 18.2538 32.8846C19.1841 31.5392 19.2873 30.1314 18.5472 28.6719C18.1398 27.8565 17.5531 27.1771 16.9447 26.518C16.7043 26.2557 16.4775 25.9744 16.2561 25.7026C16.1543 25.5668 16.0157 25.4309 16.0959 25.2474C16.176 25.0639 16.3892 25.1115 16.5495 25.1115C17.817 25.0499 19.0881 24.9915 20.3629 24.9362C23.7011 24.7881 27.0433 24.6916 30.3773 24.4823C35.2338 24.1766 40.0876 23.8029 44.8408 22.6722C46.245 22.3366 47.6194 21.918 48.862 21.153C48.8959 21.1172 48.9405 21.0935 48.9891 21.0856C49.0377 21.0778 49.0876 21.0862 49.1309 21.1095Z" fill="#233B77"/>
<path d="M67.2884 16.8086V31.1453C67.2884 31.9389 67.2884 31.9525 66.5238 31.9484C63.7601 31.9348 61.0372 31.61 58.4229 30.6846C56.6873 30.0717 55.2613 29.0539 54.5334 27.271C54.2261 26.5158 54.0684 25.7082 54.0689 24.8929C54.0594 22.0962 54.0689 19.2995 54.0689 16.5042V2.26945C54.0689 1.60086 54.0689 1.59814 54.7411 1.59814H66.5564C67.2951 1.59814 67.2965 1.59814 67.2965 2.37001L67.2884 16.8086Z" fill="#0857A3"/>
<path d="M167.833 25.6077C167.833 23.7614 167.833 21.9155 167.833 20.0701C167.833 19.286 167.93 19.1582 168.728 19.1012C170.317 18.9857 171.916 18.8294 173.481 19.2126C176.037 19.8323 177.188 22.3775 176.02 24.7448C175.686 25.44 175.113 25.9912 174.405 26.2967C173.997 26.4801 173.984 26.6649 174.203 27.021C175.026 28.3627 175.834 29.713 176.627 31.0719C177.064 31.8166 176.908 32.0816 176.059 32.102C175.855 32.102 175.652 32.102 175.448 32.102C175.051 32.117 174.787 31.9457 174.581 31.6019C173.745 30.1886 172.878 28.7944 172.053 27.377C171.83 26.9952 171.58 26.7791 171.129 26.8335C171.011 26.8416 170.892 26.8416 170.773 26.8335C169.84 26.8199 169.844 26.8199 169.85 27.7779C169.855 28.9294 169.855 30.0808 169.85 31.2323C169.85 31.9118 169.696 32.0626 169.013 32.0857C168.895 32.0857 168.777 32.0857 168.658 32.0857C167.957 32.0626 167.825 31.9349 167.824 31.2432C167.83 29.3665 167.833 27.4871 167.833 25.6077ZM169.87 22.9673C169.87 23.5272 169.87 24.0866 169.87 24.6456C169.87 24.8521 169.908 25.0166 170.168 25.0193C171.099 25.0315 172.034 25.128 172.956 24.9051C173.43 24.791 173.851 24.5844 174.12 24.1536C174.994 22.7472 174.143 21.0349 172.504 20.9371C171.759 20.8936 171.01 20.9276 170.264 20.9085C169.938 20.899 169.857 21.0512 169.868 21.342C169.878 21.8829 169.868 22.4265 169.868 22.9673H169.87Z" fill="#0857A3"/>
<path d="M156.875 32.1127C156.052 32.1127 155.96 32.0488 155.733 31.2688C155.461 30.3108 155.172 29.3555 154.918 28.392C154.831 28.0672 154.667 27.9626 154.342 27.9653C152.697 27.9761 151.052 27.9761 149.407 27.9653C149.256 27.9522 149.105 27.986 148.975 28.0622C148.844 28.1383 148.74 28.2531 148.678 28.3906C148.098 29.4424 147.499 30.4834 146.901 31.5257C146.589 32.0692 145.508 32.3315 144.988 31.9904C144.931 31.9605 144.881 31.9192 144.841 31.8691C144.801 31.819 144.771 31.7612 144.754 31.6992C144.738 31.6373 144.734 31.5725 144.743 31.509C144.752 31.4454 144.775 31.3845 144.808 31.33C144.955 31.0446 145.103 30.7592 145.261 30.4779C147.058 27.2573 148.856 24.0371 150.656 20.8173C150.829 20.5088 151.026 20.2112 151.213 19.9096C151.706 19.1187 152.435 18.8727 153.317 19.0358C154.144 19.1893 154.585 19.7397 154.811 20.5224C155.79 24.004 156.783 27.4829 157.764 30.9644C158.032 31.9225 157.878 32.11 156.875 32.1127ZM152.039 26.1334C152.65 26.1334 153.261 26.1334 153.871 26.1334C154.166 26.1334 154.322 26.0723 154.223 25.7258C153.796 24.2309 153.386 22.7361 152.97 21.2332C152.943 21.1367 152.93 21.0116 152.814 21.0021C152.699 20.9926 152.65 21.1095 152.6 21.1951C151.716 22.7153 150.833 24.2368 149.951 25.7597C149.78 26.0546 149.903 26.1457 150.208 26.1402C150.825 26.1185 151.434 26.1266 152.044 26.1266L152.039 26.1334Z" fill="#0857A3"/>
<path d="M199.994 32.1128C199.149 32.1128 199.055 32.0476 198.822 31.2377C198.55 30.3109 198.285 29.3854 198.039 28.4532C197.946 28.1026 197.776 27.9545 197.398 27.9627C196.414 27.9844 195.43 27.9844 194.446 27.9627C194.045 27.9545 193.88 28.1094 193.785 28.4886C193.541 29.4561 193.256 30.4128 192.986 31.3736C192.815 31.9851 192.69 32.0843 192.068 32.1033C190.817 32.1414 190.681 31.9674 191.02 30.7783C191.958 27.4753 192.897 24.1717 193.835 20.8677C194.063 20.0619 194.355 19.3294 195.285 19.0766C196.471 18.7546 197.521 19.2492 197.859 20.4138C198.91 24.0367 199.928 27.6678 200.95 31.3002C201.121 31.9063 200.866 32.1101 199.994 32.1128ZM195.9 20.9696C195.862 21.0145 195.83 21.0376 195.822 21.0675C195.381 22.642 194.941 24.2175 194.502 25.7938C194.411 26.1145 194.616 26.1227 194.837 26.1213C195.531 26.1213 196.226 26.1091 196.919 26.1281C197.309 26.139 197.421 26.0479 197.301 25.6335C196.893 24.2406 196.527 22.8368 196.141 21.4384C196.097 21.2808 196.082 21.1028 195.9 20.9696Z" fill="#0857A3"/>
<path d="M159.01 26.6921C159.01 25.2177 158.998 23.7446 159.01 22.2715C159.027 20.3025 160.036 19.1596 161.977 19.04C163.243 18.9612 164.521 19.0169 165.792 19.0536C166.436 19.0726 166.519 19.2099 166.52 19.8785V20.0823C166.52 20.8161 166.501 20.8515 165.742 20.8705C164.791 20.8936 163.84 20.8827 162.89 20.8868C161.234 20.8949 161.043 21.0852 161.043 22.72C161.043 23.076 161.043 23.4321 161.043 23.7881C161.043 24.4254 161.085 24.4676 161.741 24.4676C162.944 24.4676 164.149 24.4581 165.352 24.4553C165.556 24.4553 165.759 24.4689 165.962 24.4798C166.328 24.5002 166.523 24.685 166.516 25.0614C166.516 25.2299 166.516 25.3998 166.516 25.5683C166.501 26.0765 166.361 26.2342 165.837 26.2382C164.446 26.2505 163.055 26.245 161.663 26.2491C161.07 26.2491 161.04 26.2831 161.04 26.8878C161.04 28.2943 161.04 29.7008 161.04 31.1005C161.04 31.9553 160.855 32.117 159.975 32.1074C159.173 32.0979 159.004 31.9294 159.003 31.1073C159.007 29.6396 159.01 28.1652 159.01 26.6921Z" fill="#0857A3"/>
<path d="M181.634 25.3725C181.725 24.3057 181.558 22.9917 182.074 21.7401C182.79 19.9993 184.102 19.131 185.942 19.0087C186.979 18.938 188.007 19.0698 189.033 19.2166C189.44 19.275 189.697 19.4435 189.671 19.896C189.661 20.0822 189.663 20.2684 189.671 20.4532C189.68 20.9044 189.422 21.062 189.022 21.0117C188.261 20.9166 187.497 20.9383 186.735 20.9071C184.881 20.8283 183.883 21.6654 183.747 23.5081C183.623 24.9097 183.626 26.3197 183.757 27.7207C183.93 29.3378 184.707 30.4114 186.623 30.3027C187.167 30.2714 187.71 30.2538 188.253 30.232C188.541 30.2198 188.829 30.2076 189.117 30.1981C189.517 30.1845 189.716 30.3937 189.729 30.7783C189.757 31.5121 189.814 31.9592 188.741 32.0598C187.71 32.1563 186.683 32.2976 185.648 32.1549C183.508 31.8559 182.18 30.5636 181.791 28.4314C181.611 27.4938 181.672 26.5439 181.634 25.3725Z" fill="#0857A3"/>
<path d="M178.07 25.5953C178.07 23.7671 178.07 21.9388 178.07 20.1106C178.07 19.1934 178.165 19.105 179.098 19.1091C179.268 19.1032 179.437 19.1082 179.606 19.1241C179.727 19.1296 179.841 19.179 179.927 19.2628C180.014 19.3466 180.067 19.4592 180.076 19.5793C180.099 19.781 180.11 19.9838 180.11 20.1867C180.11 23.7761 180.11 27.3646 180.11 30.9521C180.11 31.137 180.098 31.3231 180.088 31.5093C180.069 31.8776 179.859 32.0529 179.504 32.0841L179.352 32.095C178.195 32.1602 178.07 32.0406 178.07 30.872V25.5953Z" fill="#0857A3"/>
</g>
<defs>
<clipPath id="clip0_2183_3320">
<rect width="201" height="48" fill="white"/>
</clipPath>
</defs>
</svg>
